<mxfile host="app.diagrams.net" modified="2024-05-30T20:43:20.900Z" agent="Mozilla/5.0 (Macintosh; Intel Mac OS X 10_15_7) AppleWebKit/537.36 (KHTML, like Gecko) Chrome/124.0.0.0 Safari/537.36" etag="epGdCAaOZP_Gsw5vQ5BV" version="24.4.10" type="github">
  <diagram name="Page-1" id="J833wwSMojTPg9n32lm9">
    <mxGraphModel dx="1509" dy="863" grid="1" gridSize="10" guides="1" tooltips="1" connect="1" arrows="1" fold="1" page="1" pageScale="1" pageWidth="850" pageHeight="1100" math="0" shadow="0">
      <root>
        <mxCell id="0" />
        <mxCell id="1" parent="0" />
        <mxCell id="YoCO1oFB1NaaQyqCljmT-1" value="" style="shape=actor;whiteSpace=wrap;html=1;" vertex="1" parent="1">
          <mxGeometry x="130" y="278.5" width="40" height="60" as="geometry" />
        </mxCell>
        <mxCell id="YoCO1oFB1NaaQyqCljmT-2" value="" style="outlineConnect=0;dashed=0;verticalLabelPosition=bottom;verticalAlign=top;align=center;html=1;shape=mxgraph.aws3.management_console;fillColor=#D2D3D3;gradientColor=none;" vertex="1" parent="1">
          <mxGeometry x="250" y="277" width="63" height="63" as="geometry" />
        </mxCell>
        <mxCell id="YoCO1oFB1NaaQyqCljmT-7" value="" style="image;aspect=fixed;html=1;points=[];align=center;fontSize=12;image=img/lib/azure2/general/Browser.svg;" vertex="1" parent="1">
          <mxGeometry x="390" y="280.5" width="70" height="56" as="geometry" />
        </mxCell>
        <mxCell id="YoCO1oFB1NaaQyqCljmT-8" style="edgeStyle=orthogonalEdgeStyle;rounded=0;orthogonalLoop=1;jettySize=auto;html=1;exitX=0.9;exitY=0.5;exitDx=0;exitDy=0;exitPerimeter=0;entryX=0;entryY=0.5;entryDx=0;entryDy=0;entryPerimeter=0;" edge="1" parent="1" source="YoCO1oFB1NaaQyqCljmT-1" target="YoCO1oFB1NaaQyqCljmT-2">
          <mxGeometry relative="1" as="geometry" />
        </mxCell>
        <mxCell id="YoCO1oFB1NaaQyqCljmT-9" value="Administrator" style="text;html=1;align=center;verticalAlign=middle;resizable=0;points=[];autosize=1;strokeColor=none;fillColor=none;" vertex="1" parent="1">
          <mxGeometry x="105" y="340" width="90" height="30" as="geometry" />
        </mxCell>
        <mxCell id="YoCO1oFB1NaaQyqCljmT-10" style="edgeStyle=orthogonalEdgeStyle;rounded=0;orthogonalLoop=1;jettySize=auto;html=1;exitX=1;exitY=0.5;exitDx=0;exitDy=0;exitPerimeter=0;entryX=0.013;entryY=0.505;entryDx=0;entryDy=0;entryPerimeter=0;" edge="1" parent="1" source="YoCO1oFB1NaaQyqCljmT-2" target="YoCO1oFB1NaaQyqCljmT-7">
          <mxGeometry relative="1" as="geometry" />
        </mxCell>
        <mxCell id="YoCO1oFB1NaaQyqCljmT-11" value="Device with a browser" style="text;html=1;align=center;verticalAlign=middle;resizable=0;points=[];autosize=1;strokeColor=none;fillColor=none;" vertex="1" parent="1">
          <mxGeometry x="211.5" y="340" width="140" height="30" as="geometry" />
        </mxCell>
        <mxCell id="YoCO1oFB1NaaQyqCljmT-13" value="" style="strokeWidth=2;html=1;shape=mxgraph.flowchart.database;whiteSpace=wrap;" vertex="1" parent="1">
          <mxGeometry x="395" y="170" width="60" height="60" as="geometry" />
        </mxCell>
        <mxCell id="YoCO1oFB1NaaQyqCljmT-14" value="Browser&amp;nbsp;&lt;span style=&quot;background-color: initial;&quot;&gt;Cookies&lt;/span&gt;" style="text;html=1;align=center;verticalAlign=middle;resizable=0;points=[];autosize=1;strokeColor=none;fillColor=none;" vertex="1" parent="1">
          <mxGeometry x="370" y="135" width="110" height="30" as="geometry" />
        </mxCell>
        <mxCell id="YoCO1oFB1NaaQyqCljmT-15" style="rounded=0;orthogonalLoop=1;jettySize=auto;html=1;exitX=0.5;exitY=1;exitDx=0;exitDy=0;exitPerimeter=0;entryX=0.501;entryY=-0.009;entryDx=0;entryDy=0;entryPerimeter=0;startArrow=classic;startFill=1;" edge="1" parent="1" source="YoCO1oFB1NaaQyqCljmT-13" target="YoCO1oFB1NaaQyqCljmT-7">
          <mxGeometry relative="1" as="geometry" />
        </mxCell>
        <mxCell id="YoCO1oFB1NaaQyqCljmT-39" style="edgeStyle=orthogonalEdgeStyle;rounded=0;orthogonalLoop=1;jettySize=auto;html=1;" edge="1" parent="1" source="YoCO1oFB1NaaQyqCljmT-16" target="YoCO1oFB1NaaQyqCljmT-24">
          <mxGeometry relative="1" as="geometry">
            <Array as="points">
              <mxPoint x="705" y="587" />
            </Array>
          </mxGeometry>
        </mxCell>
        <mxCell id="YoCO1oFB1NaaQyqCljmT-16" value="" style="aspect=fixed;sketch=0;html=1;dashed=0;whitespace=wrap;verticalLabelPosition=bottom;verticalAlign=top;fillColor=#2875E2;strokeColor=#ffffff;points=[[0.005,0.63,0],[0.1,0.2,0],[0.9,0.2,0],[0.5,0,0],[0.995,0.63,0],[0.72,0.99,0],[0.5,1,0],[0.28,0.99,0]];shape=mxgraph.kubernetes.icon2;kubernetesLabel=1;prIcon=api" vertex="1" parent="1">
          <mxGeometry x="670" y="459.99999999999994" width="70" height="67.2" as="geometry" />
        </mxCell>
        <mxCell id="YoCO1oFB1NaaQyqCljmT-17" value="" style="shape=datastore;whiteSpace=wrap;html=1;" vertex="1" parent="1">
          <mxGeometry x="920" y="557.2" width="60" height="60" as="geometry" />
        </mxCell>
        <mxCell id="YoCO1oFB1NaaQyqCljmT-21" value="Backend API" style="text;html=1;align=center;verticalAlign=middle;resizable=0;points=[];autosize=1;strokeColor=none;fillColor=none;" vertex="1" parent="1">
          <mxGeometry x="735" y="478.6" width="90" height="30" as="geometry" />
        </mxCell>
        <mxCell id="YoCO1oFB1NaaQyqCljmT-40" style="edgeStyle=orthogonalEdgeStyle;rounded=0;orthogonalLoop=1;jettySize=auto;html=1;entryX=0.5;entryY=1;entryDx=0;entryDy=0;" edge="1" parent="1" source="YoCO1oFB1NaaQyqCljmT-24" target="YoCO1oFB1NaaQyqCljmT-17">
          <mxGeometry relative="1" as="geometry">
            <mxPoint x="830" y="680" as="targetPoint" />
            <Array as="points">
              <mxPoint x="630" y="660" />
              <mxPoint x="950" y="660" />
            </Array>
          </mxGeometry>
        </mxCell>
        <mxCell id="YoCO1oFB1NaaQyqCljmT-24" value="" style="sketch=0;outlineConnect=0;fontColor=#232F3E;gradientColor=none;fillColor=#01A88D;strokeColor=none;dashed=0;verticalLabelPosition=bottom;verticalAlign=top;align=center;html=1;fontSize=12;fontStyle=0;aspect=fixed;pointerEvents=1;shape=mxgraph.aws4.sagemaker_model;" vertex="1" parent="1">
          <mxGeometry x="600" y="557.2" width="60" height="60" as="geometry" />
        </mxCell>
        <mxCell id="YoCO1oFB1NaaQyqCljmT-28" value="Admin Dashboard&lt;div&gt;(Views)&lt;/div&gt;" style="text;html=1;align=center;verticalAlign=middle;resizable=0;points=[];autosize=1;strokeColor=none;fillColor=none;" vertex="1" parent="1">
          <mxGeometry x="365" y="340" width="120" height="40" as="geometry" />
        </mxCell>
        <mxCell id="YoCO1oFB1NaaQyqCljmT-31" value="Database Models" style="text;html=1;align=center;verticalAlign=middle;resizable=0;points=[];autosize=1;strokeColor=none;fillColor=none;" vertex="1" parent="1">
          <mxGeometry x="570" y="535" width="120" height="30" as="geometry" />
        </mxCell>
        <mxCell id="YoCO1oFB1NaaQyqCljmT-38" style="edgeStyle=orthogonalEdgeStyle;rounded=0;orthogonalLoop=1;jettySize=auto;html=1;" edge="1" parent="1" source="YoCO1oFB1NaaQyqCljmT-32" target="YoCO1oFB1NaaQyqCljmT-24">
          <mxGeometry relative="1" as="geometry">
            <Array as="points">
              <mxPoint x="560" y="587" />
            </Array>
          </mxGeometry>
        </mxCell>
        <mxCell id="YoCO1oFB1NaaQyqCljmT-32" value="" style="image;aspect=fixed;html=1;points=[];align=center;fontSize=12;image=img/lib/azure2/devops/API_Connections.svg;" vertex="1" parent="1">
          <mxGeometry x="520" y="448.6" width="68" height="45.32" as="geometry" />
        </mxCell>
        <mxCell id="YoCO1oFB1NaaQyqCljmT-33" value="Controllers" style="text;html=1;align=center;verticalAlign=middle;resizable=0;points=[];autosize=1;strokeColor=none;fillColor=none;" vertex="1" parent="1">
          <mxGeometry x="440" y="456.26000000000005" width="80" height="30" as="geometry" />
        </mxCell>
        <mxCell id="YoCO1oFB1NaaQyqCljmT-34" style="edgeStyle=orthogonalEdgeStyle;rounded=0;orthogonalLoop=1;jettySize=auto;html=1;entryX=0.524;entryY=-0.014;entryDx=0;entryDy=0;entryPerimeter=0;startArrow=classic;startFill=1;" edge="1" parent="1" source="YoCO1oFB1NaaQyqCljmT-7" target="YoCO1oFB1NaaQyqCljmT-32">
          <mxGeometry relative="1" as="geometry" />
        </mxCell>
        <mxCell id="YoCO1oFB1NaaQyqCljmT-37" value="Database" style="text;html=1;align=center;verticalAlign=middle;resizable=0;points=[];autosize=1;strokeColor=none;fillColor=none;" vertex="1" parent="1">
          <mxGeometry x="890" y="520" width="70" height="30" as="geometry" />
        </mxCell>
        <mxCell id="YoCO1oFB1NaaQyqCljmT-42" style="edgeStyle=orthogonalEdgeStyle;rounded=0;orthogonalLoop=1;jettySize=auto;html=1;exitX=-0.003;exitY=0.567;exitDx=0;exitDy=0;exitPerimeter=0;startArrow=classic;startFill=1;" edge="1" parent="1" source="YoCO1oFB1NaaQyqCljmT-43" target="YoCO1oFB1NaaQyqCljmT-57">
          <mxGeometry relative="1" as="geometry">
            <mxPoint x="780" y="308.52941176470586" as="sourcePoint" />
            <mxPoint x="705" y="340" as="targetPoint" />
          </mxGeometry>
        </mxCell>
        <mxCell id="YoCO1oFB1NaaQyqCljmT-43" value="" style="image;aspect=fixed;html=1;points=[];align=center;fontSize=12;image=img/lib/azure2/general/Browser.svg;" vertex="1" parent="1">
          <mxGeometry x="865" y="227" width="70" height="56" as="geometry" />
        </mxCell>
        <mxCell id="YoCO1oFB1NaaQyqCljmT-44" value="Angular&amp;nbsp;&lt;div&gt;Web Application&lt;/div&gt;" style="text;strokeColor=none;align=center;fillColor=none;html=1;verticalAlign=middle;whiteSpace=wrap;rounded=0;" vertex="1" parent="1">
          <mxGeometry x="830" y="283" width="140" height="30" as="geometry" />
        </mxCell>
        <mxCell id="YoCO1oFB1NaaQyqCljmT-45" value="" style="strokeWidth=2;html=1;shape=mxgraph.flowchart.database;whiteSpace=wrap;" vertex="1" parent="1">
          <mxGeometry x="870" y="120" width="60" height="60" as="geometry" />
        </mxCell>
        <mxCell id="YoCO1oFB1NaaQyqCljmT-47" style="edgeStyle=orthogonalEdgeStyle;rounded=0;orthogonalLoop=1;jettySize=auto;html=1;entryX=0.5;entryY=1;entryDx=0;entryDy=0;entryPerimeter=0;endArrow=classic;endFill=1;startArrow=classic;startFill=1;" edge="1" parent="1" source="YoCO1oFB1NaaQyqCljmT-43" target="YoCO1oFB1NaaQyqCljmT-45">
          <mxGeometry relative="1" as="geometry" />
        </mxCell>
        <mxCell id="YoCO1oFB1NaaQyqCljmT-48" value="Browser&amp;nbsp;&lt;span style=&quot;background-color: initial;&quot;&gt;Local Storage&lt;/span&gt;" style="text;html=1;align=center;verticalAlign=middle;resizable=0;points=[];autosize=1;strokeColor=none;fillColor=none;" vertex="1" parent="1">
          <mxGeometry x="830" y="90" width="140" height="30" as="geometry" />
        </mxCell>
        <mxCell id="YoCO1oFB1NaaQyqCljmT-49" value="" style="shape=actor;whiteSpace=wrap;html=1;" vertex="1" parent="1">
          <mxGeometry x="1185" y="223.5" width="40" height="60" as="geometry" />
        </mxCell>
        <mxCell id="YoCO1oFB1NaaQyqCljmT-50" value="" style="outlineConnect=0;dashed=0;verticalLabelPosition=bottom;verticalAlign=top;align=center;html=1;shape=mxgraph.aws3.management_console;fillColor=#D2D3D3;gradientColor=none;" vertex="1" parent="1">
          <mxGeometry x="1025" y="222" width="63" height="63" as="geometry" />
        </mxCell>
        <mxCell id="YoCO1oFB1NaaQyqCljmT-51" style="edgeStyle=orthogonalEdgeStyle;rounded=0;orthogonalLoop=1;jettySize=auto;html=1;entryX=0.988;entryY=0.483;entryDx=0;entryDy=0;entryPerimeter=0;" edge="1" parent="1" source="YoCO1oFB1NaaQyqCljmT-50" target="YoCO1oFB1NaaQyqCljmT-43">
          <mxGeometry relative="1" as="geometry" />
        </mxCell>
        <mxCell id="YoCO1oFB1NaaQyqCljmT-52" style="edgeStyle=orthogonalEdgeStyle;rounded=0;orthogonalLoop=1;jettySize=auto;html=1;entryX=1;entryY=0.5;entryDx=0;entryDy=0;entryPerimeter=0;" edge="1" parent="1" source="YoCO1oFB1NaaQyqCljmT-49" target="YoCO1oFB1NaaQyqCljmT-50">
          <mxGeometry relative="1" as="geometry" />
        </mxCell>
        <mxCell id="YoCO1oFB1NaaQyqCljmT-53" value="Device with a browser" style="text;html=1;align=center;verticalAlign=middle;resizable=0;points=[];autosize=1;strokeColor=none;fillColor=none;" vertex="1" parent="1">
          <mxGeometry x="986.5" y="286.5" width="140" height="30" as="geometry" />
        </mxCell>
        <mxCell id="YoCO1oFB1NaaQyqCljmT-54" value="User" style="text;html=1;align=center;verticalAlign=middle;resizable=0;points=[];autosize=1;strokeColor=none;fillColor=none;" vertex="1" parent="1">
          <mxGeometry x="1180" y="290" width="50" height="30" as="geometry" />
        </mxCell>
        <mxCell id="YoCO1oFB1NaaQyqCljmT-55" value="HTTP&lt;div&gt;Request/Response&lt;/div&gt;" style="text;html=1;align=center;verticalAlign=middle;resizable=0;points=[];autosize=1;strokeColor=none;fillColor=none;" vertex="1" parent="1">
          <mxGeometry x="700" y="260" width="130" height="40" as="geometry" />
        </mxCell>
        <mxCell id="YoCO1oFB1NaaQyqCljmT-57" value="" style="sketch=0;outlineConnect=0;fontColor=#232F3E;gradientColor=none;fillColor=#01A88D;strokeColor=none;dashed=0;verticalLabelPosition=bottom;verticalAlign=top;align=center;html=1;fontSize=12;fontStyle=0;aspect=fixed;shape=mxgraph.aws4.agent2;" vertex="1" parent="1">
          <mxGeometry x="675" y="325" width="60" height="60" as="geometry" />
        </mxCell>
        <mxCell id="YoCO1oFB1NaaQyqCljmT-59" value="Data Transfer Object" style="text;html=1;align=center;verticalAlign=middle;resizable=0;points=[];autosize=1;strokeColor=none;fillColor=none;" vertex="1" parent="1">
          <mxGeometry x="730" y="336.5" width="130" height="30" as="geometry" />
        </mxCell>
        <mxCell id="YoCO1oFB1NaaQyqCljmT-60" style="edgeStyle=orthogonalEdgeStyle;rounded=0;orthogonalLoop=1;jettySize=auto;html=1;entryX=0.5;entryY=0;entryDx=0;entryDy=0;entryPerimeter=0;startArrow=classic;startFill=1;" edge="1" parent="1" source="YoCO1oFB1NaaQyqCljmT-57" target="YoCO1oFB1NaaQyqCljmT-16">
          <mxGeometry relative="1" as="geometry" />
        </mxCell>
        <mxCell id="YoCO1oFB1NaaQyqCljmT-62" value="" style="endArrow=none;html=1;rounded=0;" edge="1" parent="1">
          <mxGeometry width="50" height="50" relative="1" as="geometry">
            <mxPoint x="80" y="410" as="sourcePoint" />
            <mxPoint x="80" y="410" as="targetPoint" />
            <Array as="points">
              <mxPoint x="80" y="120" />
              <mxPoint x="590" y="120" />
              <mxPoint x="590" y="410" />
            </Array>
          </mxGeometry>
        </mxCell>
        <mxCell id="YoCO1oFB1NaaQyqCljmT-64" value="Admin Environment" style="text;html=1;align=center;verticalAlign=middle;resizable=0;points=[];autosize=1;strokeColor=none;fillColor=none;" vertex="1" parent="1">
          <mxGeometry x="80" y="120" width="130" height="30" as="geometry" />
        </mxCell>
        <mxCell id="YoCO1oFB1NaaQyqCljmT-65" value="" style="endArrow=none;html=1;rounded=0;" edge="1" parent="1">
          <mxGeometry width="50" height="50" relative="1" as="geometry">
            <mxPoint x="430" y="720" as="sourcePoint" />
            <mxPoint x="430" y="720" as="targetPoint" />
            <Array as="points">
              <mxPoint x="430" y="580" />
              <mxPoint x="430" y="430" />
              <mxPoint x="830" y="430" />
              <mxPoint x="830" y="580" />
              <mxPoint x="830" y="720" />
            </Array>
          </mxGeometry>
        </mxCell>
        <mxCell id="YoCO1oFB1NaaQyqCljmT-66" value="Backend Environment" style="text;html=1;align=center;verticalAlign=middle;resizable=0;points=[];autosize=1;strokeColor=none;fillColor=none;" vertex="1" parent="1">
          <mxGeometry x="435" y="690" width="140" height="30" as="geometry" />
        </mxCell>
        <mxCell id="YoCO1oFB1NaaQyqCljmT-67" value="" style="endArrow=none;html=1;rounded=0;" edge="1" parent="1">
          <mxGeometry width="50" height="50" relative="1" as="geometry">
            <mxPoint x="640" y="410" as="sourcePoint" />
            <mxPoint x="640" y="410" as="targetPoint" />
            <Array as="points">
              <mxPoint x="640" y="80" />
              <mxPoint x="1280" y="80" />
              <mxPoint x="1280" y="410" />
              <mxPoint x="960" y="410" />
            </Array>
          </mxGeometry>
        </mxCell>
        <mxCell id="YoCO1oFB1NaaQyqCljmT-69" value="User Environment" style="text;html=1;align=center;verticalAlign=middle;resizable=0;points=[];autosize=1;strokeColor=none;fillColor=none;" vertex="1" parent="1">
          <mxGeometry x="1145" y="80" width="120" height="30" as="geometry" />
        </mxCell>
        <mxCell id="YoCO1oFB1NaaQyqCljmT-70" value="HTTP&lt;div&gt;Request/Response&lt;/div&gt;" style="text;html=1;align=center;verticalAlign=middle;resizable=0;points=[];autosize=1;strokeColor=none;fillColor=none;" vertex="1" parent="1">
          <mxGeometry x="430" y="370" width="130" height="40" as="geometry" />
        </mxCell>
        <mxCell id="YoCO1oFB1NaaQyqCljmT-71" value="" style="endArrow=none;html=1;rounded=0;" edge="1" parent="1">
          <mxGeometry width="50" height="50" relative="1" as="geometry">
            <mxPoint x="890" y="690" as="sourcePoint" />
            <mxPoint x="890" y="690" as="targetPoint" />
            <Array as="points">
              <mxPoint x="890" y="520" />
              <mxPoint x="1010" y="520" />
              <mxPoint x="1010" y="660" />
              <mxPoint x="1010" y="690" />
            </Array>
          </mxGeometry>
        </mxCell>
      </root>
    </mxGraphModel>
  </diagram>
</mxfile>
